<svg width="512" height="512" viewBox="0 0 512 512" fill="none" xmlns="http://www.w3.org/2000/svg">
  <rect width="512" height="512" rx="100" fill="#0F4CCB"/>
  <path d="M256 96C175.2 96 112 148.8 96 224V256H144V224C156.8 168 200 128 256 128C312 128 355.2 168 368 224V256H416V224C400 148.8 336.8 96 256 96Z" fill="white" fill-opacity="0.2"/>
  <path d="M160 240H352V256C352 329 293.7 388.5 221.6 398.8L200.8 416H144L168 396.8C112.3 369.6 72 315.2 72 256V240H160Z" fill="white"/>
  <path d="M352 240H440V256C440 315.2 399.7 369.6 344 396.8L368 416H311.2L290.4 398.8C218.3 388.5 160 329 160 256V240H352Z" fill="#7DD3FC"/>
  <path d="M256 176C229.5 176 208 197.5 208 224V256H304V224C304 197.5 282.5 176 256 176Z" fill="#0EA5E9"/>
</svg>
